<svg width="192" height="33" fill="none" xmlns="http://www.w3.org/2000/svg"><path fill-rule="evenodd" clip-rule="evenodd" d="M192 0H34.298l-.097 33h157.702L192 0Z" fill="#003D6E"/><path d="M56.006 16.048h10.517v.854c0 4.003-1.136 7.163-3.413 9.482-2.276 2.319-5.38 3.475-9.315 3.475a14.83 14.83 0 0 1-3.424-.38 12.395 12.395 0 0 1-3.002-1.114c-2.093-1.145-3.71-2.728-4.845-4.75-1.135-2.022-1.706-4.317-1.706-6.89 0-2.118.339-4.033 1.016-5.741a12.566 12.566 0 0 1 3.074-4.507 11.426 11.426 0 0 1 4.006-2.467c1.522-.557 3.205-.836 5.053-.836 2.45 0 4.572.445 6.373 1.329 1.801.889 3.293 2.223 4.476 4.002l-2.544 2.034c-.915-1.542-2.063-2.692-3.43-3.463-1.367-.77-2.96-1.156-4.774-1.156-2.96 0-5.362.996-7.204 2.989-1.85 1.992-2.77 4.595-2.77 7.815 0 3.036.938 5.527 2.811 7.472 1.873 1.945 4.262 2.917 7.163 2.917 2.557 0 4.685-.77 6.385-2.318 1.7-1.548 2.645-3.558 2.83-6.037h-7.277v-2.71Zm18.845 13.135V6.631H67.64V3.75h17.454v2.882h-7.176v22.552h-3.067Zm13.625 0V3.749h3.032v9.785h13.548V3.749h3.085v25.434h-3.085V16.416H91.508v12.767h-3.032Zm25.759 0V3.749h5.986c1.712 0 2.96.095 3.757.285a5.585 5.585 0 0 1 2.099.984c.754.587 1.343 1.382 1.759 2.372.422.99.63 2.088.63 3.292 0 2.081-.582 3.664-1.754 4.75-1.165 1.085-2.877 1.624-5.13 1.624h-.541l9.743 12.127h-3.851l-9.304-12.127h-.434v12.127h-2.96Zm2.96-22.878v8.51h2.313c2.371 0 3.959-.303 4.761-.913.803-.605 1.201-1.667 1.201-3.185 0-1.63-.41-2.775-1.237-3.433-.826-.653-2.401-.979-4.725-.979h-2.313Zm16.128 22.878V3.749h13.447v2.764h-10.415v7.293h10.415v2.817h-10.415v9.743h10.415v2.817h-13.447Zm18.583 0V3.749h13.447v2.764h-10.415v7.293h10.415v2.817h-10.415v9.743h10.415v2.817h-13.447Zm27.863-14.125c1.658.706 2.912 1.642 3.757 2.81.838 1.175 1.26 2.556 1.26 4.152 0 2.342-.743 4.228-2.235 5.657-1.492 1.429-3.472 2.146-5.933 2.146-2.009 0-3.692-.51-5.053-1.536-1.355-1.025-2.271-2.484-2.746-4.37l2.746-1.358c.375 1.542.987 2.71 1.837 3.499.856.794 1.926 1.192 3.216 1.192 1.522 0 2.752-.439 3.692-1.31.939-.878 1.409-2.011 1.409-3.416 0-1.133-.327-2.123-.981-2.96-.66-.842-1.647-1.547-2.973-2.128l-3.097-1.323c-1.694-.705-2.96-1.613-3.787-2.728-.832-1.108-1.248-2.443-1.248-3.99 0-1.809.672-3.303 2.021-4.483 1.344-1.18 3.062-1.773 5.154-1.773 1.534 0 2.86.326 3.977.972 1.124.646 1.998 1.607 2.622 2.87l-2.509 1.595c-.564-.984-1.207-1.713-1.914-2.194a4.182 4.182 0 0 0-2.402-.723c-1.135 0-2.068.35-2.794 1.044-.725.693-1.087 1.577-1.087 2.656 0 .902.279 1.684.838 2.342.553.665 1.42 1.246 2.592 1.756l3.638 1.6Z" fill="#FEFEFE"/><path fill-rule="evenodd" clip-rule="evenodd" d="M0 .197h32.621v3.515H3.323v11.03H29.3V11.85H16.29V8.335h16.33v24.466H0v-3.514h29.299v-11.03H3.323v2.892h13.011v3.515H0V.197Z" fill="#003D6E"/><path fill-rule="evenodd" clip-rule="evenodd" d="M16.317 4.12h16.305v.404H16.317v-.405ZM.014 25.089h16.305v.405H.014v-.405ZM16.317 6.605h16.305v.405H16.317v-.405ZM.014 27.575h16.305v.405H.014v-.405ZM16.317 4.976h16.305v.404H16.317v-.404ZM.014 25.945h16.305v.405H.014v-.405ZM16.317 7.462h16.305v.405H16.317v-.405ZM.014 28.432h16.305v.404H.014v-.404ZM16.317 5.83h16.305v.405H16.317V5.83ZM.014 26.8h16.305v.405H.014V26.8Z" fill="#A8D4AF"/></svg>