<svg width="1419" height="204" fill="none" xmlns="http://www.w3.org/2000/svg"><path d="M108.08 203.84c-15.493 0-29.867-2.427-43.12-7.28-13.253-5.04-24.733-12.133-34.44-21.28-9.52-9.147-16.987-19.88-22.4-32.2C2.707 130.573 0 116.853 0 101.92c0-14.933 2.707-28.56 8.12-40.88 5.413-12.507 12.973-23.333 22.68-32.48 9.707-9.147 21.187-16.147 34.44-21C78.68 2.52 93.333 0 109.2 0c18.48 0 35 3.08 49.56 9.24 14.56 6.16 26.6 15.027 36.12 26.6L159.6 67.76c-6.72-7.28-14-12.693-21.84-16.24-7.653-3.733-16.24-5.6-25.76-5.6-8.4 0-16.053 1.307-22.96 3.92S76.253 56.28 71.4 61.32c-4.853 4.853-8.68 10.733-11.48 17.64C57.307 85.68 56 93.333 56 101.92c0 8.213 1.307 15.773 3.92 22.68 2.8 6.907 6.627 12.88 11.48 17.92 4.853 4.853 10.64 8.68 17.36 11.48 6.907 2.613 14.467 3.92 22.68 3.92s16.24-1.307 24.08-3.92c7.84-2.8 15.773-7.467 23.8-14l31.08 38.92c-11.2 8.027-24.173 14.187-38.92 18.48-14.747 4.293-29.213 6.44-43.4 6.44Zm33.32-32.2V97.72h49v81.2l-49-7.28Zm134.269 28.28V47.88h-60.2V3.92h175.56v43.96h-59.92v152.04h-55.44Zm275.454-196h55.44v196h-55.44v-196Zm-75.6 196h-55.44v-196h55.44v196Zm79.52-76.44h-83.44V77.56h83.44v45.92Zm99.026 76.44v-196h89.6c17.92 0 33.32 2.893 46.2 8.68 13.067 5.787 23.147 14.187 30.24 25.2 7.093 10.827 10.64 23.707 10.64 38.64 0 14.747-3.547 27.533-10.64 38.36-7.093 10.64-17.173 18.853-30.24 24.64-12.88 5.6-28.28 8.4-46.2 8.4h-58.8l24.64-23.24v75.32h-55.44Zm121.24 0-48.72-71.4h59.08l49 71.4h-59.36Zm-65.8-69.44L684.869 105h55.44c11.573 0 20.16-2.52 25.76-7.56 5.787-5.04 8.68-12.04 8.68-21 0-9.147-2.893-16.24-8.68-21.28-5.6-5.04-14.187-7.56-25.76-7.56h-55.44l24.64-25.48v108.36ZM920.695 79.8h90.995v41.44h-90.995V79.8Zm3.92 77.28h102.475v42.84H869.735v-196h153.715v42.84h-98.835v110.32ZM1117.22 79.8h91v41.44h-91V79.8Zm3.92 77.28h102.48v42.84h-157.36v-196h153.72v42.84h-98.84v110.32Zm210.52 46.76c-16.05 0-31.54-1.96-46.48-5.88-14.74-4.107-26.78-9.333-36.12-15.68l18.2-40.88c8.78 5.6 18.86 10.267 30.24 14 11.58 3.547 23.06 5.32 34.44 5.32 7.66 0 13.82-.653 18.48-1.96 4.67-1.493 8.03-3.36 10.08-5.6 2.24-2.427 3.36-5.227 3.36-8.4 0-4.48-2.05-8.027-6.16-10.64-4.1-2.613-9.42-4.76-15.96-6.44-6.53-1.68-13.81-3.36-21.84-5.04-7.84-1.68-15.77-3.827-23.8-6.44-7.84-2.613-15.02-5.973-21.56-10.08-6.53-4.293-11.85-9.8-15.96-16.52-4.1-6.907-6.16-15.587-6.16-26.04 0-11.76 3.18-22.4 9.52-31.92 6.54-9.52 16.24-17.173 29.12-22.96C1303.94 2.893 1320 0 1339.22 0c12.88 0 25.48 1.493 37.8 4.48 12.51 2.8 23.62 7 33.32 12.6l-17.08 41.16c-9.33-5.04-18.57-8.773-27.72-11.2-9.14-2.613-18.01-3.92-26.6-3.92-7.65 0-13.81.84-18.48 2.52-4.66 1.493-8.02 3.547-10.08 6.16-2.05 2.613-3.08 5.6-3.08 8.96 0 4.293 1.96 7.747 5.88 10.36 4.11 2.427 9.43 4.48 15.96 6.16 6.72 1.493 14 3.08 21.84 4.76 8.03 1.68 15.96 3.827 23.8 6.44 8.03 2.427 15.31 5.787 21.84 10.08 6.54 4.107 11.76 9.613 15.68 16.52 4.11 6.72 6.16 15.213 6.16 25.48 0 11.387-3.26 21.933-9.8 31.64-6.34 9.52-15.96 17.173-28.84 22.96-12.69 5.787-28.74 8.68-48.16 8.68Z" fill="#003B77"/></svg>