<svg width="197" height="69" viewBox="0 0 197 69" fill="none" xmlns="http://www.w3.org/2000/svg">
<path fill-rule="evenodd" clip-rule="evenodd" d="M161.884 27.7166V41.3013H167.016V26.6713H168.67C170.716 26.6713 171.421 27.0007 171.956 28.2018C172.31 28.9946 172.346 29.6356 172.35 35.1893L172.354 41.3032H177.513L177.449 34.2486C177.387 27.3498 177.376 27.1723 176.908 26.2059C176.588 25.5901 176.159 25.0403 175.642 24.5847C174.222 23.4408 173.554 23.2653 170.148 23.1647L167.018 23.0681V14.1319H161.884V27.7166ZM95.0996 23.1253C91.4365 24.064 89.4059 27.4937 89.4117 32.7241C89.4175 36.5206 90.3024 38.9405 92.161 40.2422C93.4902 41.1731 94.3364 41.3308 97.6151 41.2618L100.585 41.1967L101.157 39.6308C101.47 38.767 101.779 37.8972 101.844 37.698C101.951 37.3608 101.74 37.3312 99.2709 37.3312C97.4528 37.3312 96.3632 37.2385 95.9053 37.0432C95.1711 36.7316 94.5432 35.6666 94.5432 34.7397V34.1953H105.218V32.0949C105.218 29.2352 104.781 27.3971 103.711 25.774C102.996 24.6892 102.633 24.3618 101.475 23.7643C100.212 23.1115 99.9162 23.0464 97.9861 22.9892C96.8269 22.9556 95.5266 23.0168 95.0996 23.1272V23.1253ZM132.011 23.3343C130.5 23.8234 128.812 25.2651 128.12 26.6516C127.135 28.6337 126.94 29.7894 127.015 33.2151C127.079 36.1794 127.123 36.4733 127.66 37.6448C128.336 39.118 128.999 39.8773 130.267 40.6425C131.151 41.175 131.337 41.2007 134.604 41.2658L138.018 41.3368L138.659 39.5322C139.011 38.5382 139.301 37.6448 139.301 37.5442C139.301 37.4456 137.962 37.3312 136.325 37.2937C133.429 37.2286 133.34 37.2128 132.815 36.6764C132.442 36.2977 132.241 35.8283 132.168 35.1617L132.061 34.1953H142.79V32.4105C142.79 26.0264 140.178 22.8846 134.9 22.9221C133.864 22.93 132.782 23.0838 132.011 23.3343ZM76.1366 23.3363C74.251 23.7169 72.6396 24.9989 72.0407 26.5924C71.8069 27.2157 71.7297 27.9296 71.7857 28.9433C71.8572 30.2213 71.9634 30.5408 72.6532 31.5624C73.824 33.294 74.9678 33.8009 77.9663 33.9192C80.6924 34.0277 81.0653 34.0908 81.4903 34.5247C81.9695 35.0118 81.9057 36.3451 81.3821 36.8283C81.0034 37.1773 80.5146 37.2385 77.4485 37.3312L73.9476 37.4357L73.2618 39.3152C72.885 40.3506 72.5759 41.2283 72.5759 41.2618C72.5759 41.2993 74.8596 41.2993 77.6572 41.2618C82.4873 41.2007 82.7887 41.1731 83.8126 40.7017C84.9912 40.1593 86.2084 38.9346 86.6585 37.8361C86.8169 37.4515 86.9464 36.5344 86.9464 35.7968C86.9464 33.442 86.0751 31.7478 84.3285 30.7065C83.4475 30.1799 83.1384 30.1227 80.5881 30.0162C79.0502 29.9511 77.6127 29.7874 77.3712 29.6494C76.581 29.1997 76.438 28.0676 77.0717 27.2709C77.4466 26.7975 77.6088 26.7719 80.6866 26.6713L83.9092 26.5668L84.5043 24.9081C84.8308 23.995 85.0974 23.218 85.0974 23.1825C85.0974 23.0385 76.923 23.1785 76.1366 23.3363ZM113.28 23.3402C112.253 23.548 111.293 24.0149 110.489 24.6984C109.684 25.3818 109.059 26.2601 108.672 27.2531C108.237 28.3536 108.199 28.7638 108.197 32.4203C108.197 36.2622 108.212 36.4279 108.73 37.5481C109.435 39.0805 110.359 40.1199 111.541 40.7135C112.387 41.1376 112.901 41.2105 115.689 41.3013L118.871 41.4058L118.941 42.029C119.04 42.9106 118.622 44.1807 118.149 44.4391C117.927 44.5594 117.005 44.7152 116.101 44.7881C115.197 44.8591 114.459 44.9321 114.459 44.9499C114.459 44.9696 114.178 45.7624 113.837 46.713L113.218 48.4427L116.661 48.3717C119.712 48.3066 120.197 48.2474 120.925 47.851C122.461 47.0089 123.514 45.4311 123.833 43.4865C123.928 42.9165 123.98 38.1023 123.949 32.7852L123.895 23.1193L119.022 23.143C116.342 23.1548 113.759 23.2436 113.28 23.3402ZM146.299 24.8056C145.951 25.7365 145.665 26.5372 145.665 26.5845C145.665 26.6338 147.282 26.6713 149.259 26.6713C151.233 26.6713 152.848 26.7423 152.844 26.8291C152.841 26.9159 151.086 29.4186 148.942 32.3947L145.049 37.8025V41.3013H157.311L157.955 39.4691C158.31 38.4613 158.6 37.5678 158.6 37.483C158.6 37.4002 156.936 37.3312 154.904 37.3312C152.871 37.3312 151.208 37.2838 151.208 37.2247C151.208 37.1675 152.922 34.7752 155.014 31.9076L158.82 26.695L158.762 24.9594L158.702 23.2239L152.819 23.1686L146.934 23.1134L146.299 24.8056ZM184.812 24.6439C184.511 25.5077 184.263 26.3183 184.263 26.4445C184.263 26.6003 185.308 26.6713 187.548 26.6713C190.56 26.6713 190.867 26.7068 191.244 27.0894C191.684 27.5391 191.777 28.3477 191.456 28.9571C191.186 29.4699 190.548 29.6888 187.476 30.3258C184.286 30.9885 182.82 31.523 181.873 32.3691C179.677 34.3314 179.748 38.3508 182.009 39.9444C183.67 41.1198 184.076 41.181 190.577 41.2579L196.582 41.3308L196.58 34.0533C196.58 29.7795 196.493 26.4603 196.371 26.0126C196.116 25.0778 194.847 23.8629 193.773 23.5276C193.342 23.3935 191.273 23.2357 189.174 23.1765L185.361 23.07L184.812 24.6439ZM99.2844 27.1466C100.187 27.758 100.701 28.823 100.701 30.0675V31.0615H94.5451V30.1247C94.5451 28.7323 95.0436 27.6594 95.9381 27.1308C96.9775 26.5195 98.3725 26.5254 99.2863 27.1466H99.2844ZM118.974 32.0022V37.3312H117.034C115.966 37.3312 114.859 37.2227 114.573 37.0906C114.283 36.9565 113.846 36.42 113.587 35.8875C113.168 35.0197 113.124 34.6312 113.129 31.8977C113.135 29.18 113.182 28.7757 113.589 27.9888C113.84 27.5075 114.207 27.0165 114.405 26.8981C114.604 26.7798 115.713 26.6812 116.87 26.6792L118.976 26.6713L118.974 32.0022ZM136.625 27.0381C137.543 27.5115 138.066 28.4542 138.213 29.9038L138.331 31.0615H131.851L131.969 29.9038C132.181 27.8191 133.288 26.6733 135.091 26.6733C135.543 26.6733 136.233 26.837 136.625 27.0381ZM191.448 35.0316V37.3312H188.771C186.201 37.3312 186.072 37.3115 185.589 36.8184C184.961 36.1774 184.943 35.4457 185.546 34.8797C185.902 34.5444 190.453 32.8621 191.294 32.7536C191.379 32.7418 191.448 33.7674 191.448 35.0316ZM158.555 45.9182C157.469 46.0769 156.443 46.523 155.578 47.2122C154.713 47.9014 154.039 48.8098 153.625 49.8469C153.219 50.8665 153.159 51.3911 153.159 53.8406C153.159 56.4893 153.192 56.7339 153.716 57.8127C154.527 59.4891 155.323 60.3588 156.678 61.059C157.785 61.629 158.053 61.6783 160.037 61.6783C162.02 61.6783 162.288 61.629 163.395 61.059C164.757 60.3549 165.557 59.4753 166.342 57.8127C166.8 56.8404 166.898 56.302 166.975 54.3298C167.053 52.3654 166.999 51.7639 166.63 50.5293C165.6 47.0779 162.543 45.3325 158.555 45.9182ZM131.683 46.1115C129.874 46.4231 128.485 47.5591 127.62 49.4367C127.115 50.5352 127.085 50.7857 127.085 53.8406C127.085 56.9686 127.104 57.1224 127.66 58.2742C128.333 59.6686 129.699 60.9801 130.842 61.3292C131.302 61.4672 132.948 61.5737 134.675 61.5737H137.703L137.626 63.0075C137.562 64.1179 137.423 64.6287 137.004 65.2756C136.24 66.4491 135.29 66.8435 132.942 66.9579C130.906 67.0565 130.471 67.2557 130.471 68.0919C130.471 68.4351 130.69 68.4706 132.782 68.4686C134.78 68.4686 135.228 68.3996 136.119 67.9736C137.351 67.38 138.105 66.599 138.669 65.3367C139.067 64.4354 139.086 63.9996 139.09 55.1482L139.094 45.8985L135.862 45.9241C134.082 45.938 132.202 46.0228 131.683 46.1115ZM146.299 46.1253C144.531 46.4803 143.014 47.926 142.593 49.6615C142.446 50.265 142.386 52.5508 142.423 56.0357L142.481 61.4692L143.254 61.5343L144.023 61.5994V55.7143C144.023 49.1468 144.044 49.0284 145.46 48.133C146.061 47.7524 146.556 47.6656 148.507 47.6005L150.837 47.5256L151.127 46.8235C151.283 46.4369 151.413 46.0721 151.413 46.0109C151.413 45.8334 147.298 45.9261 146.299 46.1253ZM169.823 46.0385C169.746 46.1155 169.686 48.778 169.686 51.9552C169.686 57.7003 169.688 57.7338 170.202 58.7811C170.745 59.8934 171.914 60.9032 173.156 61.3331C173.587 61.481 175.333 61.5737 177.723 61.5737H181.595V45.8748L180.824 45.9399L180.055 46.005L179.999 52.9532L179.945 59.9013H176.864C173.386 59.9013 172.605 59.6745 171.707 58.3925C171.235 57.72 171.226 57.6036 171.166 51.8053L171.102 45.9005H170.532C170.219 45.9005 169.899 45.9616 169.823 46.0385ZM184.88 56.8463V67.8434H186.317V61.5737H189.254C191.997 61.5737 192.26 61.5382 193.251 61.0353C194.503 60.4003 195.22 59.5976 195.942 58.0218C196.427 56.9646 196.47 56.6412 196.472 54.0497C196.472 50.618 196.151 49.3361 194.942 47.9358C193.5 46.2693 192.753 46.0366 188.527 45.936L184.88 45.8472V56.8463ZM162.837 48.0088C164.753 48.9752 165.735 51.3379 165.524 54.4797C165.337 57.2763 164.075 59.2702 162.118 59.8658C161.098 60.1774 158.975 60.1774 157.955 59.8658C156.809 59.5167 155.652 58.4142 155.093 57.1402C154.68 56.1975 154.606 55.6906 154.601 53.7341C154.597 51.6475 154.647 51.328 155.155 50.2749C155.464 49.6359 155.947 48.8943 156.227 48.6261C157.603 47.3087 160.853 47.0069 162.837 48.0088ZM137.659 53.7341V59.8993L134.527 59.8973C130.663 59.8914 130.126 59.6745 129.142 57.7161C128.557 56.5525 128.522 56.3414 128.522 54.0635C128.522 51.2432 128.818 49.981 129.728 48.9219C130.672 47.8234 131.559 47.5887 134.834 47.5788L137.659 47.569V53.7341ZM193.031 48.2356C193.552 48.5867 194.043 49.1704 194.35 49.8015C194.797 50.7285 194.837 51.0657 194.837 53.9787V57.1481L194.213 58.0494C193.042 59.7455 192.629 59.8993 189.263 59.8993H186.317V53.8742C186.317 50.5608 186.385 47.778 186.472 47.6913C186.555 47.6045 187.878 47.565 189.412 47.6025C192.034 47.6696 192.248 47.709 193.031 48.2356ZM17.9784 4.66723C20.919 2.68909 23.7629 1.53731 27.3024 0.886479C33.3845 -0.229799 40.1737 1.30656 45.4327 4.9887C47.1271 6.17401 53.0797 11.9645 55.9043 15.1772C60.5006 20.3977 62.5602 25.7049 62.5583 32.3158C62.5563 37.7513 61.0281 42.5319 57.9194 46.8393C56.2328 49.1744 47.4285 58.0573 45.4191 59.4516C41.416 62.2285 37.3336 63.6189 32.6155 63.8102C28.1197 63.9937 24.6942 63.3113 20.9383 61.485C17.8258 59.9723 15.9536 58.4182 10.5304 52.8388C4.34399 46.4764 3.0476 44.6343 1.58697 40.1515C0.620954 37.1872 0.406498 35.6785 0.420022 32.0003C0.431615 28.3438 0.71176 26.7403 1.92315 23.358C3.35286 19.378 5.19796 16.9167 11.5215 10.5661C14.8639 7.20942 16.7245 5.50937 17.9784 4.66723ZM35.0827 13.0807C38.1218 13.8716 39.1999 14.627 43.5895 19.0329C48.0583 23.5177 49.2697 25.1389 50.1198 27.7758C50.5854 29.2313 50.6704 29.8604 50.6743 31.8977C50.6782 33.9823 50.6047 34.5208 50.114 35.9703C49.2581 38.5027 48.3346 39.8438 45.1776 43.1492C39.6114 48.9771 37.3722 50.6595 34.138 51.4345C32.2909 51.8783 29.6421 51.8349 27.7004 51.33C24.9299 50.6082 23.4209 49.5668 19.5318 45.6895C17.6287 43.7941 15.6194 41.6642 15.0649 40.9561C13.1599 38.5263 12.2132 35.7573 12.2132 32.6274C12.2132 29.4975 13.1599 26.7285 15.0668 24.2987C15.6213 23.5927 17.8625 21.228 20.0457 19.0428C23.2722 15.8162 24.2942 14.9248 25.4882 14.2838C28.4462 12.6981 31.9316 12.2603 35.0827 13.0807ZM16.2396 30.0024C16.939 27.6022 17.4297 26.9514 22.3448 21.9143C26.7035 17.4433 27.0996 17.0883 27.2618 17.5241C27.3584 17.7845 27.6985 18.7154 28.0153 19.593L28.5911 21.1866L24.8082 25.0265C20.4417 29.462 19.81 30.4225 19.81 32.6274C19.81 33.649 19.9394 34.1855 20.434 35.1933C21.5546 37.4712 23.3398 38.621 25.7626 38.621C27.9728 38.621 28.7147 38.1753 31.947 34.8955C33.6627 33.156 34.8007 32.1501 34.8876 32.2941C34.9649 32.4243 35.303 33.3493 35.6353 34.3492L36.24 36.1695L33.9274 38.5362C31.2051 41.323 29.673 42.244 27.1421 42.6148C21.2648 43.4766 15.9092 38.7137 15.9092 32.6274C15.9092 31.807 16.0579 30.6256 16.2376 30.0024H16.2396ZM29.0161 25.987C31.4969 23.502 32.6213 22.7426 34.6461 22.1865C36.9162 21.5652 39.7274 21.9104 41.8642 23.074C43.5219 23.9733 45.1622 25.774 46.0374 27.6495C46.7213 29.1149 46.8044 29.4857 46.8778 31.3415C46.9783 33.8818 46.5784 35.5759 45.4713 37.2838C44.7371 38.4218 35.927 47.5512 35.7589 47.352C35.6102 47.1745 34.3872 43.7744 34.3872 43.5378C34.3872 43.4076 36.1357 41.5103 38.2745 39.3231C42.6795 34.8166 42.9983 34.3216 43.0022 32.0003C43.0099 28.5292 40.5098 25.9475 37.1577 25.9593C34.8973 25.9672 34.1322 26.4268 30.8748 29.7302C28.5254 32.1107 28.0559 32.5012 27.9265 32.1758C27.6734 31.484 27.4306 30.7884 27.1981 30.0892L26.6243 28.3852L29.0161 25.987ZM42.8302 8.49531C41.0102 7.25281 38.5063 6.09906 36.439 5.55079C33.1739 4.68695 28.4983 4.82501 25.3201 5.88212C21.3711 7.19562 19.7385 8.42629 13.6371 14.698C7.52606 20.9775 6.66244 22.2259 5.30615 26.7758C4.79416 28.4877 4.74393 28.967 4.73233 32.1048C4.72074 35.071 4.7845 35.8027 5.19023 37.3312C5.81234 39.6821 7.40628 42.956 8.76064 44.6678C10.3295 46.6519 19.0777 55.2666 20.4804 56.2073C22.0994 57.294 24.4121 58.3393 26.4349 58.8974C28.8654 59.568 34.1283 59.568 36.5414 58.8935C38.4619 58.361 41.6072 56.866 43.0949 55.7813C44.5826 54.6986 53.3154 45.8472 54.4959 44.228C57.0809 40.678 58.3116 36.6922 58.2711 32.0003C58.2518 29.821 58.1436 28.8841 57.7243 27.2551C57.0736 24.6628 55.9279 22.2272 54.3529 20.088C52.7261 17.9087 44.515 9.64906 42.8283 8.49531H42.8302ZM28.1255 8.83651C26.2862 9.23687 24.072 10.1756 22.4337 11.2485C21.0329 12.1656 13.1541 19.9658 11.7089 21.865C9.08715 25.3105 7.94725 29.0794 8.15784 33.5997C8.32593 37.1951 9.34411 40.1376 11.3979 42.9737C12.7117 44.7842 20.0109 52.0795 21.5121 53.0813C27.3642 56.9863 35.0171 56.9489 40.7784 52.9906C42.382 51.8901 49.8184 44.4588 51.3273 42.4511C52.7079 40.5744 53.7243 38.4456 54.322 36.1794C54.9016 33.9745 54.9557 29.9275 54.4302 27.9256C53.2652 23.5 52.4846 22.293 47.3377 16.9838C41.756 11.2268 40.0539 10.0198 36.07 8.99034C33.7709 8.39867 30.44 8.33162 28.1255 8.83651Z" fill="#111827"/>
</svg>
