<svg width="197" height="69" fill="none" xmlns="http://www.w3.org/2000/svg"><path fill-rule="evenodd" clip-rule="evenodd" d="M161.884 27.717V41.3h5.132V26.67h1.654c2.046 0 2.751.33 3.286 1.53.354.794.39 1.435.394 6.988l.004 6.114h5.159l-.064-7.054c-.062-6.9-.073-7.077-.541-8.043a5.603 5.603 0 0 0-1.266-1.621c-1.42-1.144-2.088-1.32-5.494-1.42l-3.13-.097v-8.936h-5.134v13.585ZM95.1 23.125c-3.663.939-5.694 4.369-5.688 9.6.005 3.796.89 6.215 2.749 7.517 1.33.931 2.175 1.089 5.454 1.02l2.97-.065.572-1.566c.313-.864.622-1.734.687-1.933.107-.337-.104-.367-2.573-.367-1.818 0-2.908-.093-3.366-.288-.734-.311-1.362-1.376-1.362-2.303v-.545h10.675v-2.1c0-2.86-.437-4.698-1.507-6.321-.715-1.085-1.078-1.412-2.236-2.01-1.263-.652-1.559-.718-3.489-.775-1.16-.033-2.46.028-2.886.138v-.002Zm36.911.21c-1.511.488-3.199 1.93-3.891 3.317-.985 1.982-1.18 3.137-1.105 6.563.064 2.964.108 3.258.645 4.43.676 1.473 1.339 2.232 2.607 2.997.884.533 1.07.559 4.337.624l3.414.07.641-1.804c.352-.994.642-1.887.642-1.988 0-.098-1.339-.213-2.976-.25-2.896-.065-2.985-.081-3.51-.618-.373-.378-.574-.848-.647-1.514l-.107-.967h10.729V32.41c0-6.384-2.612-9.525-7.89-9.488-1.036.008-2.118.162-2.889.412Zm-55.874.001c-1.886.38-3.497 1.663-4.096 3.256-.234.624-.311 1.338-.255 2.351.071 1.278.177 1.598.867 2.62 1.171 1.731 2.315 2.238 5.313 2.356 2.726.109 3.1.172 3.524.606.48.487.416 1.82-.108 2.303-.379.35-.867.41-3.934.503l-3.5.105-.686 1.88c-.377 1.035-.686 1.912-.686 1.946 0 .037 2.284.037 5.081 0 4.83-.061 5.132-.089 6.156-.56 1.178-.543 2.395-1.767 2.846-2.866.158-.384.287-1.302.287-2.04 0-2.354-.87-4.048-2.617-5.09-.881-.526-1.19-.583-3.74-.69-1.539-.065-2.976-.229-3.218-.367-.79-.45-.933-1.581-.3-2.378.376-.474.538-.5 3.616-.6l3.222-.104.595-1.659c.327-.913.593-1.69.593-1.726 0-.143-8.174-.003-8.96.154Zm37.143.004a6.212 6.212 0 0 0-2.791 1.358 6.397 6.397 0 0 0-1.817 2.555c-.435 1.1-.473 1.51-.475 5.167 0 3.842.015 4.008.533 5.128.705 1.532 1.629 2.572 2.811 3.166.846.424 1.36.497 4.148.587l3.182.105.07.623c.099.882-.319 2.152-.792 2.41-.222.12-1.144.276-2.048.35-.904.07-1.642.143-1.642.16 0 .02-.281.813-.622 1.764l-.619 1.73 3.443-.071c3.051-.065 3.536-.125 4.264-.521 1.536-.842 2.589-2.42 2.908-4.364.095-.57.147-5.385.116-10.702l-.054-9.666-4.873.024c-2.68.012-5.263.1-5.742.197Zm33.019 1.466c-.348.93-.634 1.731-.634 1.778 0 .05 1.617.087 3.594.087 1.974 0 3.589.071 3.585.158-.003.087-1.758 2.59-3.902 5.566l-3.893 5.407v3.5h12.262l.644-1.833c.355-1.008.645-1.901.645-1.986 0-.083-1.664-.152-3.696-.152-2.033 0-3.696-.047-3.696-.106 0-.058 1.714-2.45 3.806-5.317l3.806-5.213-.058-1.736-.06-1.735-5.883-.055-5.885-.056-.635 1.693Zm38.513-.162c-.301.864-.549 1.674-.549 1.8 0 .156 1.045.227 3.285.227 3.012 0 3.319.036 3.696.418.44.45.533 1.259.212 1.868-.27.513-.908.732-3.98 1.369-3.19.662-4.656 1.197-5.603 2.043-2.196 1.962-2.125 5.982.136 7.575 1.661 1.176 2.067 1.237 8.568 1.314l6.005.073-.002-7.278c0-4.273-.087-7.593-.209-8.04-.255-.935-1.524-2.15-2.598-2.485-.431-.134-2.5-.292-4.599-.351l-3.813-.107-.549 1.574Zm-85.528 2.503c.903.611 1.417 1.676 1.417 2.92v.994h-6.156v-.936c0-1.393.499-2.466 1.393-2.994 1.04-.611 2.434-.606 3.348.016h-.002Zm19.69 4.855v5.33h-1.94c-1.068 0-2.175-.11-2.461-.241-.29-.135-.727-.671-.986-1.203-.419-.868-.463-1.257-.458-3.99.006-2.718.053-3.122.46-3.91.251-.48.618-.971.816-1.09.199-.118 1.308-.217 2.465-.219l2.106-.008-.002 5.331Zm17.651-4.964c.918.474 1.441 1.416 1.588 2.866l.118 1.157h-6.48l.118-1.157c.212-2.085 1.319-3.23 3.122-3.23.452 0 1.142.163 1.534.364Zm54.823 7.994v2.3h-2.677c-2.57 0-2.699-.02-3.182-.514-.628-.64-.646-1.372-.043-1.938.356-.336 4.907-2.018 5.748-2.126.085-.012.154 1.013.154 2.278Zm-32.893 10.886a6.22 6.22 0 0 0-2.977 1.294 6.402 6.402 0 0 0-1.953 2.635c-.406 1.02-.466 1.544-.466 3.994 0 2.648.033 2.893.557 3.972.811 1.676 1.607 2.546 2.962 3.246 1.107.57 1.375.62 3.359.62 1.983 0 2.251-.05 3.358-.62 1.362-.704 2.162-1.584 2.947-3.246.458-.973.556-1.511.633-3.483.078-1.965.024-2.566-.345-3.8-1.03-3.452-4.087-5.197-8.075-4.612Zm-26.872.194c-1.809.311-3.198 1.447-4.063 3.325-.505 1.098-.535 1.349-.535 4.404 0 3.128.019 3.281.575 4.433.673 1.395 2.039 2.706 3.182 3.055.46.138 2.106.245 3.833.245h3.028l-.077 1.434c-.064 1.11-.203 1.62-.622 2.268-.764 1.173-1.714 1.568-4.062 1.682-2.036.099-2.471.298-2.471 1.134 0 .343.219.379 2.311.377 1.998 0 2.446-.07 3.337-.495 1.232-.594 1.986-1.375 2.55-2.637.398-.902.417-1.337.421-10.189l.004-9.25-3.232.026c-1.78.014-3.66.099-4.179.188Zm14.616.013c-1.768.355-3.285 1.801-3.706 3.536-.147.604-.207 2.89-.17 6.375l.058 5.433.773.065.769.065v-5.885c0-6.567.021-6.686 1.437-7.581.601-.38 1.096-.467 3.047-.533l2.33-.074.29-.703c.156-.386.286-.75.286-.812 0-.178-4.115-.085-5.114.114Zm23.524-.087c-.077.078-.137 2.74-.137 5.917 0 5.745.002 5.779.516 6.826.543 1.112 1.712 2.122 2.954 2.552.431.148 2.177.24 4.567.24h3.872V45.876l-.771.065-.769.065-.056 6.948-.054 6.948h-3.081c-3.478 0-4.259-.227-5.157-1.509-.472-.672-.481-.788-.541-6.587l-.064-5.904h-.57c-.313 0-.633.06-.709.137Zm15.057 10.808v10.997h1.437v-6.27h2.937c2.743 0 3.006-.035 3.997-.538 1.252-.635 1.969-1.437 2.691-3.013.485-1.057.528-1.38.53-3.972 0-3.432-.321-4.714-1.53-6.114-1.442-1.667-2.189-1.9-6.415-2l-3.647-.089v11Zm-22.043-8.837c1.916.966 2.898 3.329 2.687 6.47-.187 2.797-1.449 4.791-3.406 5.387-1.02.311-3.143.311-4.163 0-1.146-.35-2.303-1.452-2.862-2.726-.413-.943-.487-1.45-.492-3.406-.004-2.087.046-2.406.554-3.46.309-.638.792-1.38 1.072-1.648 1.376-1.317 4.626-1.62 6.61-.617Zm-25.178 5.725V59.9l-3.132-.002c-3.864-.006-4.401-.222-5.385-2.18-.585-1.164-.62-1.376-.62-3.654 0-2.82.296-4.082 1.206-5.141.944-1.099 1.831-1.333 5.106-1.343l2.825-.01v6.165Zm55.372-5.498c.521.35 1.012.934 1.319 1.566.447.926.487 1.264.487 4.177v3.17l-.624.9c-1.171 1.697-1.584 1.85-4.95 1.85h-2.946v-6.025c0-3.313.068-6.096.155-6.183.083-.087 1.406-.126 2.94-.089 2.622.068 2.836.107 3.619.634ZM17.978 4.667c2.941-1.978 5.785-3.13 9.324-3.78 6.083-1.117 12.872.42 18.13 4.102 1.695 1.185 7.648 6.975 10.472 10.188 4.597 5.22 6.656 10.528 6.654 17.139-.002 5.435-1.53 10.216-4.639 14.523-1.686 2.335-10.49 11.218-12.5 12.613-4.003 2.776-8.085 4.167-12.803 4.358-4.496.184-7.922-.499-11.678-2.325-3.112-1.513-4.984-3.067-10.408-8.646-6.186-6.363-7.482-8.205-8.943-12.688-.966-2.964-1.18-4.473-1.167-8.15.012-3.657.292-5.26 1.503-8.643 1.43-3.98 3.275-6.441 9.598-12.792 3.343-3.357 5.203-5.057 6.457-5.899Zm17.105 8.414c3.039.79 4.117 1.546 8.507 5.952 4.468 4.485 5.68 6.106 6.53 8.743.465 1.455.55 2.084.554 4.122.004 2.084-.07 2.623-.56 4.072-.856 2.533-1.78 3.874-4.936 7.18-5.567 5.827-7.806 7.51-11.04 8.285-1.847.443-4.496.4-6.438-.105-2.77-.722-4.28-1.763-8.168-5.64-1.903-1.896-3.913-4.026-4.467-4.734-1.905-2.43-2.852-5.199-2.852-8.329 0-3.13.947-5.899 2.854-8.328.554-.706 2.796-3.071 4.979-5.256 3.226-3.227 4.248-4.118 5.442-4.76 2.958-1.585 6.444-2.023 9.595-1.202ZM16.24 30.002c.699-2.4 1.19-3.05 6.105-8.088 4.358-4.47 4.755-4.826 4.917-4.39.096.26.436 1.191.753 2.069l.576 1.594-3.783 3.84c-4.366 4.435-4.998 5.395-4.998 7.6 0 1.022.13 1.558.624 2.566 1.12 2.278 2.906 3.428 5.329 3.428 2.21 0 2.952-.446 6.184-3.726 1.716-1.739 2.854-2.745 2.94-2.6.078.13.416 1.054.748 2.054l.605 1.82-2.313 2.367c-2.722 2.787-4.254 3.708-6.785 4.079-5.877.862-11.233-3.901-11.233-9.988 0-.82.149-2.001.329-2.625h.002Zm12.776-4.015c2.48-2.485 3.605-3.244 5.63-3.8 2.27-.622 5.081-.277 7.218.887 1.658.9 3.298 2.7 4.173 4.575.684 1.466.767 1.837.84 3.692.101 2.54-.299 4.235-1.406 5.943-.734 1.138-9.544 10.267-9.712 10.068-.149-.177-1.372-3.578-1.372-3.814 0-.13 1.749-2.028 3.888-4.215 4.404-4.506 4.723-5.001 4.727-7.323.008-3.47-2.492-6.052-5.844-6.04-2.26.007-3.026.467-6.283 3.77-2.35 2.38-2.82 2.771-2.948 2.446a74.39 74.39 0 0 1-.729-2.087l-.574-1.704 2.392-2.398ZM42.83 8.495c-1.82-1.242-4.324-2.395-6.39-2.944-3.265-.864-7.94-.726-11.119.331-3.949 1.314-5.582 2.544-11.683 8.816-6.11 6.28-6.975 7.528-8.33 12.078-.513 1.712-.563 2.191-.575 5.329-.011 2.966.053 3.698.458 5.226.622 2.351 2.216 5.625 3.57 7.337 1.57 1.984 10.318 10.599 11.72 11.54 1.62 1.086 3.932 2.131 5.955 2.69 2.43.67 7.693.67 10.106-.005 1.92-.532 5.066-2.027 6.554-3.112 1.488-1.082 10.22-9.934 11.4-11.553 2.586-3.55 3.817-7.536 3.776-12.228-.02-2.179-.127-3.116-.547-4.745a20.51 20.51 0 0 0-3.371-7.167c-1.627-2.18-9.838-10.439-11.525-11.593h.002Zm-14.704.342c-1.84.4-4.054 1.339-5.692 2.412-1.401.917-9.28 8.717-10.725 10.616-2.622 3.446-3.762 7.214-3.551 11.735.168 3.595 1.186 6.538 3.24 9.374 1.314 1.81 8.613 9.106 10.114 10.107 5.852 3.905 13.505 3.868 19.266-.09 1.604-1.1 9.04-8.532 10.55-10.54a18.58 18.58 0 0 0 2.994-6.272c.58-2.205.634-6.252.108-8.253-1.165-4.426-1.945-5.633-7.092-10.942-5.582-5.757-7.284-6.964-11.268-7.994-2.3-.591-5.63-.658-7.945-.153Z" fill="#111827"/></svg>