<svg width="243" height="43" fill="none" xmlns="http://www.w3.org/2000/svg"><path d="m41.046 34.4-8.209 8.598L2.472 43 0 40.409V8.599L8.21 0h30.364l2.472 2.59V34.4Z" fill="#111827"/><path d="m38.575 0-9.232 9.671v14.117L21.78 12.9H5.84v3.421h4.699v13.05L.002 40.408V43l2.472-.002L14.079 30.84V16.322h4.698v13.777h3.496V19.212l7.563 10.887h3.003v-18.91l8.208-8.6V0h-2.472Z" fill="#fff"/><path d="M54.181 17.077h-4.925V12.9h14.402v4.177h-4.925v13.02H54.18v-13.02ZM66.05 12.9h13.204v4.052h-8.7v2.607h7.879v3.76h-7.88v2.726h8.819v4.053H66.05V12.9Zm20.813 8.452L81.468 12.9h5.231l2.908 4.84 2.933-4.84h5.111l-5.392 8.403 5.629 8.795h-5.232l-3.144-5.183-3.165 5.183h-5.113l5.63-8.746Zm13.176-8.452h4.55v6.437h5.841V12.9h4.55v17.198h-4.55v-6.536h-5.841v6.536h-4.55V12.9Zm17.673 8.599c0-4.94 3.8-8.944 8.867-8.944 5.065 0 8.818 3.956 8.818 8.944 0 4.938-3.8 8.943-8.865 8.943-5.069 0-8.82-3.957-8.82-8.943Zm13.04 0c0-2.482-1.711-4.646-4.22-4.646-2.489 0-4.153 2.114-4.153 4.646 0 2.482 1.713 4.641 4.199 4.641 2.508 0 4.174-2.11 4.174-4.641Zm7.399-8.599h4.553v6.437h5.838V12.9h4.552v17.198h-4.552v-6.536h-5.838v6.536h-4.553V12.9Zm18.483 0h4.504v9.68l6.358-9.68h4.243v17.198h-4.503v-9.68l-6.357 9.68h-4.245V12.9Zm18.647 0h4.549v6.979l5.653-6.979h5.395l-6.215 7.395 6.425 9.803h-5.463l-4.128-6.386-1.667 1.939v4.448h-4.549V12.9Zm15.841 8.599c0-4.94 3.798-8.944 8.864-8.944 5.067 0 8.821 3.956 8.821 8.944 0 4.938-3.801 8.943-8.866 8.943-5.067 0-8.819-3.957-8.819-8.943Zm13.038 0c0-2.482-1.709-4.646-4.219-4.646-2.488 0-4.152 2.114-4.152 4.646 0 2.482 1.711 4.641 4.198 4.641 2.509 0 4.173-2.11 4.173-4.641Zm24.978-8.599h4.549v5.404h2.486c3.941 0 6.827 1.967 6.827 5.847 0 3.712-2.58 5.947-6.591 5.947h-7.271V12.9Zm6.919 13.194c1.5 0 2.392-.713 2.392-2.064 0-1.204-.892-1.99-2.369-1.99h-2.393v4.054h2.37ZM212.836 12.9v7.545c0 1.783-.172 4.362-1.296 5.274-.527.428-1.398.755-1.949.755v4.055h.432c1.573 0 3.336-.663 4.013-1.113 2.745-1.825 3.084-5.297 3.084-9.218v-3.121h3.927v13.02h4.55V12.9h-12.761Z" fill="#111827"/></svg>