<svg width="143" height="63" fill="none" xmlns="http://www.w3.org/2000/svg"><g clip-path="url(#a)"><path d="m12.189 20.253 7.23 9.248h-6.866a3.552 3.552 0 0 1-1.575-.364 3.656 3.656 0 0 1-1.266-1.03L0 15.616h6.07a3.663 3.663 0 0 0 2.555-1.01 3.874 3.874 0 0 0 1.193-2.534v-.223a3.98 3.98 0 0 0-.748-2.336A3.796 3.796 0 0 0 7.113 8.1a3.6 3.6 0 0 0-1.062-.144H4.93L0 1.542h6.45a9.813 9.813 0 0 1 5.895 1.994 10.286 10.286 0 0 1 3.617 5.188c.64 2.08.622 4.317-.054 6.386a10.27 10.27 0 0 1-3.704 5.123l-.015.02Zm16.976 28.154c.058 3.8-1.354 7.469-3.923 10.199-2.57 2.73-6.087 4.298-9.78 4.36-3.692.063-7.258-1.385-9.913-4.027-2.656-2.641-4.183-6.26-4.248-10.06v-.471c0-1.522.23-3.034.683-4.482.023-.083.05-.17.08-.258.85-2.397.94-3.849.125-6.191.759-.504 1.59-1.035 1.59-1.035.481.465 1.794 1.378 3.543.067a13.507 13.507 0 0 1 7.89-2.546c3.71.015 7.264 1.544 9.88 4.252 2.615 2.709 4.079 6.374 4.07 10.192h.003Zm-6.71 0a7.569 7.569 0 0 0-1.256-4.097 7.252 7.252 0 0 0-3.252-2.694 7.019 7.019 0 0 0-4.157-.387 7.151 7.151 0 0 0-3.669 2.05 7.49 7.49 0 0 0-1.95 3.799 7.617 7.617 0 0 0 .425 4.273 7.375 7.375 0 0 0 2.655 3.315 7.031 7.031 0 0 0 6.773.672 7.2 7.2 0 0 0 2.349-1.63 7.44 7.44 0 0 0 1.557-2.436 7.61 7.61 0 0 0 .524-2.864Zm18.06 8.757c-2.469 0-3.505-2.17-3.505-4.712 0-2.46.915-4.685 3.384-4.685a2.68 2.68 0 0 1 1.821.585 2.824 2.824 0 0 1 1.006 1.668h6.475a9.524 9.524 0 0 0-3.153-5.8 9.027 9.027 0 0 0-6.084-2.23c-6.411 0-10.273 4.684-10.273 10.407 0 6.555 4.7 10.572 10.193 10.572 5.493 0 8.562-3.514 9.678-8.237H43.46a3.102 3.102 0 0 1-1.056 1.753 2.948 2.948 0 0 1-1.892.679h.004ZM59.322 54.5v-6.023h4.173V42.66H59.32v-6.246h-6.734v6.254h-2.189v5.809h2.189v6.956c0 4.591 1.992 7.129 6.89 7.129a17.186 17.186 0 0 0 4.172-.613v-5.555c-.746.19-1.508.3-2.276.328-1.54 0-2.056-.438-2.056-2.214l.004-.008Zm25.599-2.05c0 5.779-4.173 10.541-10.194 10.541-5.891 0-10.193-4.59-10.193-10.54 0-6.063 4.34-10.45 10.194-10.45 6.046 0 10.19 4.516 10.19 10.45h.003Zm-6.73.044c0-2.378-1.115-4.384-3.463-4.384-2.349 0-3.464 1.885-3.464 4.384 0 2.498 1.354 4.384 3.463 4.384 2.277 0 3.46-1.886 3.46-4.384h.004Zm28.323.164c0 6.472-4.302 10.286-8.725 10.286a5.557 5.557 0 0 1-2.791-.632 5.746 5.746 0 0 1-2.14-1.948h-.198v1.924h-6.544V32.792h6.411v11.922h.213a7.755 7.755 0 0 1 2.606-1.897 7.561 7.561 0 0 1 3.13-.656c2.735 0 8.031 2.464 8.031 10.494l.007.004Zm-6.828-.043c0-2.378-1.116-4.466-3.665-4.466-1.87 0-3.505 1.803-3.505 4.427 0 2.705 1.517 4.509 3.505 4.509 2.462 0 3.657-2.257 3.657-4.47h.008Zm27.64-.203c.008.548-.019 1.095-.08 1.64h-13.369a4.027 4.027 0 0 0 1.089 2.816 3.8 3.8 0 0 0 2.705 1.2h.065a3.367 3.367 0 0 0 1.826-.462 3.49 3.49 0 0 0 1.318-1.38h6.207c-1.233 3.81-4.143 6.761-9.484 6.761-5.497 0-10.194-4.017-10.194-10.571 0-5.735 3.506-10.408 10.034-10.408 5.865 0 9.887 4.216 9.887 10.404h-.004Zm-6.491-2.733a3.628 3.628 0 0 0-1.143-2.268 3.433 3.433 0 0 0-2.321-.91c-.855 0-1.681.324-2.32.91a3.618 3.618 0 0 0-1.143 2.268h6.927Zm20.337-7.519c-2.587 0-4.578 1.597-5.853 3.904h-.197v-3.361h-6.499v19.628h6.73V53.28c0-2.662 1.233-4.754 4.7-4.754.988 0 1.974.082 2.948.245v-6.472a7.6 7.6 0 0 0-1.836-.164l.007.027ZM37.557 19.628a13.11 13.11 0 0 1-.08 1.64H24.078a4.025 4.025 0 0 0 1.089 2.817 3.8 3.8 0 0 0 2.705 1.2h.064a3.368 3.368 0 0 0 1.832-.47 3.5 3.5 0 0 0 1.317-1.392h6.21c-1.233 3.81-4.143 6.761-9.484 6.761-5.493 0-10.194-4.017-10.194-10.571 0-5.735 3.506-10.408 10.035-10.408 5.876.016 9.905 4.236 9.905 10.423Zm-6.491-2.732a3.623 3.623 0 0 0-1.143-2.269 3.43 3.43 0 0 0-2.32-.91 3.43 3.43 0 0 0-2.321.91 3.623 3.623 0 0 0-1.143 2.269h6.927ZM52.53 0h6.525v29.501h-6.411V27.66h-.197a7.755 7.755 0 0 1-2.607 1.89 7.562 7.562 0 0 1-3.126.651c-2.746 0-8.042-2.498-8.042-10.54 0-6.473 4.302-10.45 8.725-10.45a5.557 5.557 0 0 1 2.791.631 5.746 5.746 0 0 1 2.141 1.949h.201V0Zm.121 19.75c0-2.706-1.517-4.685-3.505-4.685-2.47 0-3.665 2.416-3.665 4.63 0 2.377 1.116 4.509 3.665 4.509 1.867 0 3.498-1.831 3.498-4.454h.008Z" fill="#111827"/></g><defs><clipPath id="a"><path fill="#fff" d="M0 0h143v63H0z"/></clipPath></defs></svg>